<?xml version="1.0" standalone="no"?>
<!DOCTYPE svg PUBLIC "-//W3C//DTD SVG 20010904//EN"
 "http://www.w3.org/TR/2001/REC-SVG-20010904/DTD/svg10.dtd">
<svg version="1.0" xmlns="http://www.w3.org/2000/svg"
 width="512.000000pt" height="512.000000pt" viewBox="0 0 512.000000 512.000000"
 preserveAspectRatio="xMidYMid meet">
<metadata>
Created by potrace 1.11, written by Peter Selinger 2001-2013
</metadata>
<g transform="translate(0.000000,512.000000) scale(0.100000,-0.100000)"
fill="#000000" stroke="none">
<path d="M3204 3966 c-3 -8 -4 -482 -1 -1053 3 -878 6 -1054 20 -1143 49 -330
179 -489 447 -547 74 -16 136 -18 495 -18 356 0 421 2 490 18 265 59 386 201
442 522 27 151 26 851 0 1009 -53 314 -165 451 -420 518 -77 20 -110 22 -574
25 l-493 4 -2 337 -3 337 -198 3 c-165 2 -198 0 -203 -12z m1348 -1182 c68
-19 120 -69 137 -131 24 -85 33 -242 28 -483 -8 -334 -26 -393 -135 -447 l-57
-28 -355 0 c-398 0 -420 3 -481 64 -70 70 -73 88 -77 594 l-3 447 442 0 c379
0 451 -2 501 -16z"/>
<path d="M160 3891 c-77 -24 -132 -75 -150 -139 -6 -24 -10 -460 -10 -1294 l0
-1258 185 0 185 0 2 865 3 865 430 -807 c236 -445 444 -834 462 -865 44 -76
97 -108 177 -108 64 0 122 24 154 65 11 14 222 403 468 865 l449 840 5 -857 5
-858 188 -3 187 -2 0 1257 c0 835 -4 1271 -10 1295 -21 74 -94 132 -183 144
-62 9 -117 -10 -159 -53 -24 -26 -209 -366 -564 -1035 -290 -549 -530 -998
-533 -998 -4 1 -242 451 -531 1001 -412 787 -533 1008 -562 1034 -53 48 -131
66 -198 46z"/>
</g>
</svg>
